# This file uses centimeters as units for non-parametric coordinates.

g default
v -0.250000 -0.951057 -0.181636
v 0.293893 -0.951057 -0.095492
v -0.095492 -0.951057 0.293893
v 0.572062 -0.707107 -0.415627
v -0.218508 -0.707107 -0.672499
v -0.415627 -0.707107 0.572061
v 0.218508 -0.707107 0.672499
v -0.672499 -0.707107 -0.218508
v 0.672499 -0.707107 0.218508
v 0.987688 -0.156434 0.000000
v 0.799057 0.156434 -0.580549
v 0.275336 0.453991 -0.847398
v -0.305213 -0.156434 -0.939348
v -0.799057 -0.156434 0.580549
v 0.309017 0.000000 0.951057
v -0.799057 -0.156434 -0.580549
v 0.847398 0.453991 -0.275336
v -0.275336 0.453991 -0.847398
v -0.847398 0.453991 0.275336
v -0.275336 0.453991 0.847398
v 0.847398 0.453991 0.275336
v -0.847398 0.453991 -0.275336
v -0.140291 0.891007 -0.431771
v -0.140291 0.891007 0.431771
v 0.431771 0.891007 -0.140291
v 0.181636 0.951057 0.250000
v -0.293893 0.951057 -0.095492
vt 0.000000 0.100000
vt 0.350000 0.100000
vt 1.000000 0.100000
vt 0.650000 0.100000
vt 0.050000 0.250000
vt 0.250000 0.250000
vt 0.600000 0.250000
vt 0.750000 0.250000
vt 1.000000 0.250000
vt 0.400000 0.250000
vt 0.900000 0.250000
vt 0.950000 0.450000
vt 0.000000 0.450000
vt 0.050000 0.550000
vt 0.150000 0.650000
vt 0.250000 0.450000
vt 0.550000 0.450000
vt 0.750000 0.500000
vt 0.350000 0.450000
vt 0.000000 0.650000
vt 0.250000 0.650000
vt 0.500000 0.650000
vt 0.650000 0.650000
vt 1.000000 0.650000
vt 0.900000 0.650000
vt 0.400000 0.650000
vt 0.000000 0.850000
vt 0.250000 0.850000
vt 0.650000 0.850000
vt 1.000000 0.850000
vt 0.800000 0.900000
vt 0.400000 0.900000
vt 1.000000 0.950000
vt 0.775000 0.000000
vn 0.278928 -0.952171 -0.124777
vn 0.089238 -0.477010 -0.874356
vn 0.455003 -0.429644 -0.779986
vn -0.232778 -0.950729 -0.204768
vn -0.122638 -0.949450 0.288973
vn -0.854944 -0.518340 -0.019865
vn -0.727556 -0.512855 0.455678
vn 0.280561 -0.505302 0.816061
vn 0.734397 -0.583071 0.347405
vn -0.939824 -0.198839 -0.277838
vn 0.957511 -0.231424 0.172091
vn 0.505132 -0.169887 -0.846156
vn 0.364022 0.129279 -0.922375
vn -0.088091 -0.218472 -0.971859
vn -0.877823 -0.227210 0.421667
vn 0.337919 -0.015639 0.941045
vn 0.763309 0.614036 -0.200797
vn -0.370388 0.450316 -0.812421
vn -0.948579 0.243328 0.202457
vn -0.953618 0.226472 -0.198299
vn -0.107304 0.419771 0.901265
vn 0.730014 0.460430 0.505057
vn -0.082458 0.853250 -0.514942
vn 0.053878 0.738829 0.671736
vn 0.548378 0.820356 -0.162162
vn 0.398385 0.754699 0.521266
vn -0.417303 0.907862 -0.040565
s 1
g pSphere1 base
f 2/1/1 5/6/2 4/5/3
f 2/1/1 1/2/4 5/6/2
f 1/2/4 3/4/5 8/10/6
f 3/4/5 6/7/7 8/10/6
f 3/4/5 7/8/8 6/7/7
f 3/4/5 2/3/1 7/8/8
f 2/3/1 4/9/3 9/11/9
f 5/6/2 1/2/4 8/10/6
f 7/8/8 2/3/1 9/11/9
f 5/6/2 8/10/6 16/19/10
f 7/8/8 9/11/9 10/12/11
f 4/5/3 11/14/12 10/13/11
f 4/5/3 5/6/2 12/15/13 11/14/12
f 5/6/2 13/16/14 12/15/13
f 5/6/2 16/19/10 13/16/14
f 8/10/6 6/7/7 14/17/15 16/19/10
f 6/7/7 7/8/8 14/17/15
f 7/8/8 15/18/16 14/17/15
f 7/8/8 10/12/11 15/18/16
f 9/11/9 4/9/3 10/12/11
f 10/13/11 11/14/12 17/20/17
f 12/15/13 13/16/14 18/21/18
f 13/16/14 16/19/10 18/21/18
f 16/19/10 14/17/15 19/22/19 22/26/20
f 14/17/15 15/18/16 20/23/21
f 15/18/16 10/12/11 21/25/22
f 15/18/16 21/25/22 20/23/21
f 11/14/12 12/15/13 17/20/17
f 18/21/18 16/19/10 22/26/20
f 14/17/15 20/23/21 19/22/19
f 21/25/22 10/12/11 17/24/17
f 17/20/17 12/15/13 23/28/23
f 12/15/13 18/21/18 23/28/23
f 19/22/19 20/23/21 24/29/24
f 21/25/22 17/24/17 25/30/25 26/31/26
f 18/21/18 22/26/20 23/28/23
f 20/23/21 21/25/22 26/31/26 24/29/24
f 17/20/17 23/28/23 25/27/25
f 23/28/23 22/26/20 27/32/27
f 22/26/20 19/22/19 27/32/27
f 19/22/19 24/29/24 27/32/27
f 24/29/24 26/31/26 27/32/27
f 25/27/25 23/28/23 27/32/27
f 26/31/26 25/30/25 27/33/27
f 2/3/1 3/4/5 1/34/4
