# This file uses centimeters as units for non-parametric coordinates.

g default
v 0.181636 -0.951057 0.250000
v -0.181636 -0.951057 -0.250000
v 0.572062 -0.707107 -0.415627
v 0.218508 -0.707107 -0.672499
v -0.475528 -0.587785 -0.654509
v -0.672499 -0.707107 0.218508
v 0.218508 -0.707107 0.672499
v 0.672499 -0.707107 0.218508
v 0.769421 -0.309017 0.559017
v 0.305213 -0.156434 -0.939348
v 0.000000 -0.156434 -0.987689
v -0.939348 -0.156434 -0.305213
v -0.939348 -0.156434 0.305213
v -0.000000 -0.156434 0.987688
v 0.303776 -0.142138 0.937481
v 0.986252 -0.142138 -0.001866
v -0.799057 -0.156434 -0.580549
v -0.380444 1.499938 0.710869
v 0.389810 1.786558 0.546898
v 0.567416 2.097199 -0.181450
v -0.139691 2.199109 -0.769236
v -0.549537 2.039674 -0.746003
v -0.806409 2.039674 0.044567
v 0.277388 2.082755 -0.751626
v -0.358199 2.097199 0.491049
v -0.698708 2.199109 -0.363086
v -0.013133 2.377780 -0.089500
vt 0.800000 0.100000
vt 0.100000 0.050000
vt 0.300000 0.100000
vt 0.050000 0.250000
vt 0.150000 0.250000
vt 0.300000 0.300000
vt 0.500000 0.250000
vt 0.750000 0.250000
vt 1.000000 0.250000
vt 0.900000 0.250000
vt 0.850000 0.400000
vt 0.000000 0.450000
vt 0.150000 0.450000
vt 0.200000 0.450000
vt 0.400000 0.450000
vt 0.500000 0.450000
vt 0.700000 0.450000
vt 0.750000 0.450000
vt 0.950000 0.450000
vt 0.350000 0.450000
vt 0.000000 0.750000
vt 0.650000 0.650000
vt 0.800000 0.650000
vt 0.950000 0.750000
vt 0.200000 0.800000
vt 0.300000 0.750000
vt 0.500000 0.750000
vt 0.100000 0.750000
vt 0.650000 0.750000
vt 0.400000 0.800000
vt 0.850000 0.950000
vt 0.175000 1.000000
vn -0.053008 -0.964827 0.257484
vn 0.165018 -0.745373 -0.645901
vn 0.685543 -0.575042 -0.446494
vn -0.221648 -0.973898 -0.048928
vn -0.546709 -0.597790 -0.586308
vn -0.561643 -0.679796 0.471629
vn -0.215241 -0.678941 0.701933
vn 0.699240 -0.699319 0.148381
vn 0.868587 0.063974 0.491391
vn 0.682512 0.012369 -0.730770
vn 0.994667 0.097956 -0.032292
vn -0.227219 -0.029444 -0.973399
vn -0.964840 -0.168217 -0.201958
vn -0.573160 -0.114320 -0.811430
vn -0.813340 -0.136695 0.565501
vn -0.429824 -0.176062 0.885581
vn 0.462692 0.052469 0.884965
vn 0.626280 0.236914 -0.742728
vn 0.945975 0.320663 0.048030
vn -0.441589 0.162257 0.882424
vn -0.929495 0.290314 0.227500
vn 0.757307 0.279244 0.590347
vn -0.226236 0.225076 -0.947712
vn -0.499763 0.071506 -0.863206
vn -0.191456 0.691605 0.696439
vn -0.869149 0.420368 -0.260522
vn 0.139372 0.971992 0.189225
s 1
g pSphere1 base
f 1/2/1 4/5/2 3/4/3
f 1/2/1 2/3/4 4/5/2
f 2/3/4 5/6/5 4/5/2
f 2/3/4 6/7/6 5/6/5
f 2/3/4 1/1/1 7/8/7 6/7/6
f 1/1/1 3/9/3 8/10/8
f 7/8/7 1/1/1 8/10/8
f 7/8/7 8/10/8 9/11/9
f 3/4/3 10/13/10 16/12/11
f 3/4/3 4/5/2 10/13/10
f 4/5/2 11/14/12 10/13/10
f 4/5/2 5/6/5 11/14/12
f 5/6/5 6/7/6 12/15/13 17/20/14
f 6/7/6 13/16/15 12/15/13
f 6/7/6 7/8/7 14/17/16 13/16/15
f 7/8/7 15/18/17 14/17/16
f 7/8/7 9/11/9 15/18/17
f 9/11/9 8/10/8 16/19/11
f 8/10/8 3/9/3 16/19/11
f 11/14/12 5/6/5 17/20/14
f 16/12/11 24/28/18 20/21/19
f 16/12/11 10/13/10 24/28/18
f 13/16/15 18/22/20 23/27/21
f 13/16/15 14/17/16 18/22/20
f 14/17/16 15/18/17 18/22/20
f 15/18/17 19/23/22 18/22/20
f 15/18/17 9/11/9 19/23/22
f 9/11/9 16/19/11 20/24/19 19/23/22
f 10/13/10 21/25/23 24/28/18
f 10/13/10 11/14/12 21/25/23
f 11/14/12 17/20/14 22/26/24 21/25/23
f 17/20/14 12/15/13 22/26/24
f 12/15/13 13/16/15 23/27/21
f 23/27/21 18/22/20 25/29/25
f 18/22/20 19/23/22 25/29/25
f 22/26/24 12/15/13 26/30/26
f 12/15/13 23/27/21 26/30/26
f 22/26/24 26/30/26 21/25/23
f 19/23/22 20/24/19 27/31/27
f 20/21/19 24/28/18 27/32/27
f 24/28/18 21/25/23 27/32/27
f 23/27/21 27/31/27 26/30/26
f 23/27/21 25/29/25 27/31/27
f 25/29/25 19/23/22 27/31/27
f 21/25/23 26/30/26 27/32/27
